<?xml version="1.0" encoding="UTF-8"?>
<svg version="1.1" xmlns="http://www.w3.org/2000/svg" width="601" height="320">
<path d="M0 0 C0.93456514 -0.00436032 1.86913028 -0.00872064 2.83201557 -0.0132131 C5.98124733 -0.02421038 9.13004502 -0.01372635 12.27927399 -0.00342751 C14.55279309 -0.00688229 16.82631052 -0.01164564 19.09982443 -0.01760924 C25.36118708 -0.03017343 31.62241318 -0.02392422 37.88377643 -0.01465058 C43.9384616 -0.00857722 49.99311776 -0.01654616 56.04779722 -0.02409268 C69.19865907 -0.03990326 82.34947725 -0.03851542 95.50034328 -0.02985594 C107.0087454 -0.022315 118.5171315 -0.02033649 130.02553558 -0.02392387 C130.78834334 -0.02415303 131.55115109 -0.02438218 132.33707423 -0.02461828 C135.43340943 -0.02555227 138.52974462 -0.02650747 141.6260798 -0.02749758 C170.68351722 -0.03667856 199.74092678 -0.02834788 228.79835989 -0.01220688 C254.62506135 0.00203037 280.45171843 0.00075651 306.27841949 -0.01358986 C335.28205563 -0.02964704 364.28566715 -0.0360275 393.28930712 -0.02675307 C396.38006369 -0.02579089 399.47082026 -0.02485237 402.56157684 -0.02392387 C403.32262314 -0.02368664 404.08366944 -0.02344941 404.86777775 -0.02320499 C416.37011816 -0.01978979 427.8724408 -0.02378856 439.37477875 -0.03136253 C452.45092823 -0.03992979 465.52702712 -0.03781834 478.60317028 -0.0215203 C485.27912468 -0.01347435 491.95500876 -0.01058006 498.63096809 -0.02046776 C504.73625557 -0.0293737 510.84136876 -0.02454968 516.94664031 -0.0085351 C519.16123367 -0.00516986 521.3758416 -0.00692017 523.59042567 -0.01416247 C526.58953369 -0.02322185 529.58803656 -0.01399254 532.58711243 0 C533.45654246 -0.0070235 534.32597249 -0.014047 535.22174889 -0.02128333 C539.91985435 0.02283618 542.96533164 0.35837373 546.79355621 3.37752342 C550.96017877 7.89136453 551.91489598 11.15534153 551.92777729 17.1733799 C551.93223513 18.14131108 551.93669298 19.10924225 551.94128591 20.10650468 C551.94100936 21.69753121 551.94100936 21.69753121 551.94072723 23.32069969 C551.94440392 24.44961687 551.94808061 25.57853405 551.95186871 26.74166083 C551.96291461 30.53858053 551.96675092 34.33547287 551.97055817 38.13240623 C551.97629 40.84904782 551.98345594 43.5656853 551.99047089 46.28232384 C552.01022101 54.44390506 552.020299 62.60548749 552.02919868 70.76708663 C552.03358337 74.61137194 552.03894965 78.45565588 552.04418755 82.29994011 C552.06119727 95.0801229 552.07569176 107.86030484 552.08293629 120.64049721 C552.08484615 123.95599684 552.08676649 127.27149647 552.08872223 130.58699608 C552.08920597 131.41103588 552.08968971 132.23507568 552.09018811 133.08408639 C552.09848969 146.43508085 552.12382991 159.78598576 552.15630291 173.13694111 C552.18937595 186.84641862 552.20738521 200.55585061 552.21058053 214.26536822 C552.21274524 221.9618598 552.22148836 229.65822071 552.2470417 237.35467339 C552.26875195 243.90869155 552.27679752 250.46254731 552.26707492 257.01659736 C552.26253118 260.35950851 552.26660324 263.70181298 552.28383636 267.04472351 C552.30149077 270.6722366 552.29447973 274.29889933 552.28130341 277.92641258 C552.29775727 279.50405478 552.29775727 279.50405478 552.31454355 281.11356854 C552.26163055 287.14651569 551.77562173 292.58387898 547.79355621 297.37752342 C542.72392519 301.71244823 538.7793302 301.94924274 532.41721249 301.88088799 C531.47642838 301.88670175 530.53564428 301.89251551 529.56635156 301.89850545 C526.40187327 301.9131476 523.23816546 301.89920016 520.07369232 301.88545799 C517.78693401 301.89006521 515.50017865 301.89641692 513.21342951 301.90436697 C506.92008656 301.92110767 500.62698538 301.91279227 494.33364141 301.9004221 C488.24668218 301.89232026 482.15978158 301.90295192 476.07283021 301.91301156 C462.8532137 301.93408546 449.63367446 301.93224471 436.41405058 301.92069591 C424.84607662 301.91063943 413.27813101 301.9080042 401.71015358 301.91278648 C400.5598065 301.91324479 400.5598065 301.91324479 399.38622008 301.91371236 C396.27325535 301.91495769 393.16029063 301.91623128 390.04732593 301.91755142 C360.83781252 301.92979098 331.62834837 301.91868772 302.41884255 301.89716383 C276.45770184 301.87817911 250.4966396 301.87988109 224.53549957 301.8990078 C195.37839874 301.92041723 166.22134144 301.92892491 137.06423384 301.91655874 C133.9572036 301.91527584 130.85017334 301.91402448 127.74314308 301.91278648 C126.97809383 301.91247017 126.21304458 301.91215386 125.42481202 301.91182797 C113.86231482 301.9072745 102.29984904 301.91260579 90.73735619 301.9227047 C77.59351044 301.93412744 64.44975415 301.93131294 51.30591958 301.90958172 C44.59549385 301.89885367 37.88524766 301.8949948 31.17481232 301.90817833 C25.03805881 301.92005277 18.90161357 301.91362145 12.76488823 301.89226812 C10.53888609 301.88778105 8.31285817 301.8901151 6.08687245 301.89977127 C3.07222551 301.91185061 0.05864887 301.89954607 -2.9559412 301.88088799 C-4.26687703 301.89493498 -4.26687703 301.89493498 -5.60429642 301.90926576 C-9.67370297 301.85856817 -11.70308262 301.69574206 -15.2221002 299.47106314 C-18.70454083 295.79698784 -18.36592711 292.63652359 -18.38344574 287.81014061 C-18.39330254 286.63910034 -18.39330254 286.63910034 -18.40335846 285.44440269 C-18.42310826 282.85440033 -18.43475862 280.26445604 -18.44472504 277.67439842 C-18.44880056 276.79008392 -18.45287609 275.90576942 -18.45707512 274.99465752 C-18.47794442 270.3128743 -18.49224162 265.63112046 -18.5016098 260.94930077 C-18.51266772 256.11597682 -18.54705789 251.2831141 -18.5867815 246.44995308 C-18.6129446 242.73184422 -18.62130143 239.01384521 -18.62489128 235.29565239 C-18.62975913 233.51428429 -18.64137882 231.73292115 -18.65992928 229.95164299 C-18.68431156 227.45488696 -18.68335756 224.95932332 -18.67641449 222.46248436 C-18.68922455 221.72978828 -18.70203461 220.99709221 -18.71523285 220.24219322 C-18.66379467 215.15376699 -17.36626849 212.31785166 -14.20644379 208.37752342 C-11.26916517 205.63245936 -8.65914509 204.80870915 -4.76894379 203.94002342 C-0.39695889 202.80913666 2.71350507 201.85500052 5.79355621 198.37752342 C8.14580847 193.03420548 8.08961567 188.00365672 8.08408356 182.2764492 C8.09080078 181.27405205 8.09751801 180.27165489 8.10443878 179.23888206 C8.12339756 175.93348258 8.12734183 172.62828635 8.12949371 169.32283592 C8.13592271 167.01886983 8.14265115 164.71490455 8.14966583 162.41094017 C8.16163302 157.58418955 8.16534718 152.75751048 8.16416168 147.93074608 C8.16395844 141.75479111 8.1912692 135.57929601 8.2257061 129.40345001 C8.24797409 124.64555834 8.25199926 119.88777739 8.25094223 115.12983894 C8.253298 112.85332592 8.2621201 110.57680984 8.27760696 108.30034828 C8.29726575 105.11236921 8.29142888 101.92538274 8.27939606 98.7373867 C8.29625458 97.33595421 8.29625458 97.33595421 8.31345367 95.90620995 C8.25681929 89.98285201 7.28939676 85.2728619 3.79355621 80.37752342 C0.36680127 77.98676416 -2.67432814 77.29163659 -6.70644379 76.62752342 C-11.32297775 75.72293231 -13.31246692 73.70518197 -16.11269379 70.03377342 C-18.18909227 66.88951286 -18.34533102 64.8737792 -18.38344574 61.12093163 C-18.39628098 60.02251442 -18.40911621 58.92409721 -18.42234039 57.79239464 C-18.42972733 56.59974495 -18.43711426 55.40709526 -18.44472504 54.17830467 C-18.45279678 52.95475777 -18.46086853 51.73121086 -18.46918488 50.47058678 C-18.4830372 47.8755339 -18.49375419 45.28046271 -18.5016098 42.68538475 C-18.51879774 38.72368651 -18.56267272 34.76282789 -18.60683441 30.80135155 C-18.61696325 28.2811754 -18.62547875 25.76099215 -18.63222504 23.24080467 C-18.64973312 22.05827614 -18.66724121 20.8757476 -18.68527985 19.65738487 C-18.66787594 13.0292507 -18.38723175 8.65139788 -14.20644379 3.37752342 C-9.68403763 -0.24620712 -5.53597631 -0.04472116 0 0 Z M-10.20644379 11.37752342 C-11.42086585 13.80636756 -11.35268359 15.40040304 -11.38344574 18.11507225 C-11.39628098 19.09982033 -11.40911621 20.08456841 -11.42234039 21.09915733 C-11.42972733 22.16683846 -11.43711426 23.23451958 -11.44472504 24.33455467 C-11.45279678 25.42966866 -11.46086853 26.52478264 -11.46918488 27.65308189 C-11.48303283 29.97405472 -11.49375179 32.29504798 -11.5016098 34.61604881 C-11.51882333 38.16518825 -11.56270438 41.71339658 -11.60683441 45.26228905 C-11.61696103 47.5155374 -11.62547723 49.76879367 -11.63222504 52.02205467 C-11.64973312 53.0836631 -11.66724121 54.14527153 -11.68527985 55.23904991 C-11.67812888 61.15771489 -11.67812888 61.15771489 -9.3687973 66.51302147 C-6.63049426 68.87413927 -4.33379441 69.52846873 -0.83144379 70.37752342 C4.67243846 71.92626159 7.99677232 73.0811627 11.79355621 77.37752342 C15.06276038 83.38681467 15.22774881 88.56728054 15.19760895 95.32649803 C15.2044722 96.40706978 15.21133545 97.48764153 15.21840668 98.60095787 C15.23665673 102.16072926 15.2328396 105.72005919 15.22714996 109.27986717 C15.23171254 111.76176662 15.23701834 114.2436648 15.24303436 116.72556114 C15.25196192 121.92299602 15.24954615 127.12027721 15.23960114 132.31770897 C15.22811093 138.9701303 15.24832575 145.62181603 15.27751827 152.27419758 C15.29588535 157.39839598 15.29558675 162.5224673 15.28988075 167.64669037 C15.28972761 170.0990333 15.29576625 172.55138488 15.30817223 175.00369644 C15.32308958 178.43585217 15.31239844 181.86702868 15.2952652 185.29915428 C15.30493317 186.30667747 15.31460114 187.31420067 15.32456207 188.35225487 C15.24350529 196.1270236 13.49317712 201.41452486 8.23105621 207.19002342 C4.70878302 209.89253482 0.66398918 210.63632905 -3.62050629 211.50642967 C-7.33589772 212.75798902 -9.46305811 214.89075206 -11.20644379 218.37752342 C-11.33020909 221.36964351 -11.39490847 224.33751163 -11.40956879 227.33064842 C-11.4181189 228.67011528 -11.4181189 228.67011528 -11.42684174 230.03664207 C-11.43629864 231.92971675 -11.44282845 233.82280794 -11.44667816 235.71590233 C-11.45635853 238.60210318 -11.4873647 241.48758431 -11.51894379 244.37361717 C-11.52547643 246.2134567 -11.53072587 248.05330131 -11.53456879 249.89314842 C-11.54691559 250.75273155 -11.55926239 251.61231468 -11.57198334 252.49794579 C-11.56898224 253.31188805 -11.56598114 254.12583031 -11.5628891 254.96443748 C-11.56653473 255.673442 -11.57018036 256.38244652 -11.57393646 257.11293602 C-11.07270375 260.20166503 -9.63493464 262.61300007 -8.20644379 265.37752342 C44.31008073 265.39463304 96.82660548 265.41055478 149.34313202 265.41986656 C150.11975935 265.42000462 150.89638668 265.42014268 151.69654817 265.42028492 C168.57267268 265.42327747 185.44879722 265.4260477 202.32492181 265.42858875 C210.60035529 265.42983614 218.87578876 265.43113269 227.15122223 265.43245506 C227.97474979 265.43258582 228.79827736 265.43271658 229.6467603 265.4328513 C256.36426865 265.43711654 283.08177489 265.44463075 309.79928197 265.45382064 C337.24326535 265.46324333 364.68724756 265.46940656 392.13123254 265.47143841 C396.00295276 265.47172659 399.87467298 265.47205223 403.7463932 265.47240067 C404.5084417 265.47246809 405.27049019 265.47253551 406.05563106 265.47260498 C418.34782925 265.47378905 430.64002384 265.47843344 442.93222056 265.48435546 C455.27468438 265.49022844 467.61714462 265.49249499 479.9596098 265.4910248 C486.65324381 265.49032877 493.34686592 265.491403 500.04049873 265.4967289 C506.157438 265.50156071 512.27435944 265.50186352 518.39129949 265.49842232 C520.61472152 265.49799641 522.83814461 265.49929397 525.0615645 265.5024066 C528.06284449 265.50636689 531.06405841 265.50428913 534.06533718 265.50057125 C535.38738817 265.50451177 535.38738817 265.50451177 536.73614725 265.5085319 C540.57428977 265.87499688 540.57428977 265.87499688 543.79355621 264.37752342 C543.89435561 263.03230176 543.92644692 261.68185136 543.9305706 260.33286476 C543.93564515 259.45614152 543.94071969 258.57941828 543.945948 257.67612767 C543.94644576 256.70193214 543.94694352 255.72773661 543.94745636 254.72402 C543.95402974 253.18444732 543.95402974 253.18444732 543.96073592 251.61377215 C543.97417883 248.14602341 543.98031505 244.67830011 543.98642731 241.21053123 C543.99432394 238.73576809 544.00259261 236.2610061 544.01120758 233.78624535 C544.03520963 226.33830243 544.05036343 218.89036369 544.06326765 211.44239533 C544.06697783 209.33965233 544.07095121 207.23691 544.07502031 205.13416767 C544.10025686 192.08421612 544.12231611 179.03426356 544.13474846 165.98429298 C544.1376783 162.9597708 544.14063994 159.93524865 544.14365387 156.91072655 C544.14477295 155.78308974 544.14477295 155.78308974 544.14591463 154.6326724 C544.15856972 142.45310657 544.19179293 130.27368667 544.2334557 118.09418908 C544.27585452 105.59732514 544.29944118 93.10053595 544.30466902 80.60360026 C544.30808568 73.58396096 544.31987027 66.56454962 544.35277176 59.544981 C544.38366672 52.9425513 544.38920062 46.34044743 544.377388 39.73793221 C544.37716641 37.3115052 544.38554167 34.88506027 544.40304184 32.45869637 C544.42559991 29.15163324 544.41749944 25.84603007 544.40155792 22.53896141 C544.41544001 21.57368877 544.4293221 20.60841612 544.44362485 19.61389279 C544.42776694 18.28316145 544.42776694 18.28316145 544.41158867 16.92554665 C544.4129452 16.16247113 544.41430173 15.39939562 544.41569936 14.61319661 C543.41375178 11.0126951 541.7709481 9.59331385 538.79355621 7.37752342 C535.75636576 6.66319566 532.80534399 6.70767003 529.69643402 6.75111103 C528.7736875 6.74414342 527.85094097 6.73717582 526.90023243 6.72999707 C523.79093264 6.71267546 520.68286595 6.73115955 517.57358551 6.74933434 C515.32893652 6.74429203 513.08429155 6.73706565 510.83965588 6.72783619 C504.65801513 6.70884234 498.47676798 6.72118806 492.29513693 6.73855913 C486.31752578 6.75052357 480.33997261 6.73907163 474.36236945 6.72828782 C461.37897505 6.7058121 448.39571067 6.71183765 435.41231611 6.72972392 C424.05048255 6.74527967 412.68869462 6.75114668 401.32685089 6.74738312 C400.1971959 6.74702792 400.1971959 6.74702792 399.0447196 6.74666554 C395.98777302 6.74569065 392.93082646 6.74466984 389.87387992 6.74358044 C361.1862816 6.73349308 332.49876344 6.75177429 303.81118397 6.78330079 C278.3134177 6.81116231 252.81574678 6.81612549 227.31797028 6.80110741 C220.78915665 6.7972851 214.26034302 6.79349034 207.73152924 6.78993702 C206.9278028 6.7894992 206.12407636 6.78906139 205.29599457 6.78861031 C184.00218481 6.77737537 162.70838209 6.78471582 141.41457462 6.79781777 C139.12384736 6.79920636 136.8331201 6.80058707 134.54239283 6.80195619 C133.02272861 6.80286557 131.50306439 6.80378824 129.98340019 6.80472429 C118.62757803 6.81152567 107.2717834 6.80885503 95.91596222 6.80177689 C83.00631266 6.79381821 70.09675914 6.80034817 57.18713069 6.82595193 C50.59622029 6.83866662 44.00543649 6.84455322 37.41451645 6.83341026 C31.38689044 6.82341181 25.35958439 6.8317336 19.33199751 6.85499144 C17.14567141 6.86017535 14.95931692 6.85854502 12.77300298 6.84959679 C9.81183988 6.83848087 6.85177367 6.85174777 3.89067841 6.87136555 C3.03247879 6.86228673 2.17427918 6.85320791 1.29007351 6.84385398 C-3.79819756 6.91002569 -6.53000805 7.51774755 -10.20644379 11.37752342 Z " fill="#F1F1F1" transform="translate(33.206443786621094,8.622476577758789)"/>
<path d="M0 0 C55.11 0 110.22 0 167 0 C167.33 15.51 167.66 31.02 168 47 C164.7 47 161.4 47 158 47 C157.69707031 45.9378125 157.39414063 44.875625 157.08203125 43.78125 C153.48063092 30.79062147 153.48063092 30.79062147 145.0625 20.625 C137.7897348 16.76598173 130.52311215 15.87642671 122.36206055 15.87060547 C121.08771652 15.86745331 119.8133725 15.86430115 118.50041199 15.86105347 C117.12918055 15.86284262 115.75794943 15.86489341 114.38671875 15.8671875 C112.96661869 15.86651311 111.54651874 15.86554196 110.12641907 15.86428833 C107.1636138 15.86282012 104.20083884 15.86493922 101.23803711 15.86962891 C97.43709015 15.87535184 93.63621341 15.87202554 89.83526897 15.86605644 C86.90911831 15.86244933 83.98298442 15.86358965 81.05683327 15.86618423 C79.65456954 15.86685174 78.2523043 15.86603122 76.85004234 15.86370468 C74.89701745 15.86117294 72.94398721 15.86571407 70.9909668 15.87060547 C69.87956833 15.87140106 68.76816986 15.87219666 67.62309265 15.87301636 C65.01924341 15.82227746 65.01924341 15.82227746 63 17 C61.83808371 20.48574888 61.83961986 23.27111727 61.79467773 26.94995117 C61.78477814 27.65264633 61.77487854 28.35534149 61.76467896 29.07933044 C61.73310766 31.40050901 61.70832387 33.72170805 61.68359375 36.04296875 C61.66302044 37.65294423 61.64202387 39.26291436 61.62062073 40.87287903 C61.56543894 45.10936138 61.51601251 49.34589216 61.46777344 53.5824585 C61.41752999 57.90592761 61.36185877 62.22932644 61.30664062 66.55273438 C61.19910666 75.03509681 61.09765113 83.51751807 61 92 C68.79236407 91.90724339 76.58443129 91.79987734 84.37646484 91.68261719 C87.02420552 91.64446437 89.6719956 91.60958824 92.31982422 91.578125 C96.13787429 91.5321763 99.95558818 91.4742312 103.7734375 91.4140625 C104.94675629 91.40251129 106.12007507 91.39096008 107.32894897 91.37905884 C121.15424571 91.25861672 121.15424571 91.25861672 133 85 C137.68233091 78.67166198 138.59976665 70.55277385 140 63 C143.3 63 146.6 63 150 63 C150 87.09 150 111.18 150 136 C147.03 136 144.06 136 141 136 C139.95495667 132.94313317 138.97066013 129.89442771 138.10546875 126.78125 C135.69489919 117.90539518 135.69489919 117.90539518 130 111 C122.74473478 107.43429995 115.85622437 107.52772364 107.875 107.48828125 C106.51878257 107.47140855 105.16258053 107.45325488 103.80639648 107.43388367 C100.26211356 107.38665791 96.71789307 107.3566724 93.17340088 107.33044434 C89.54646482 107.30049912 85.9197433 107.25401733 82.29296875 107.20898438 C75.19543586 107.12326422 68.09783655 107.05578103 61 107 C61.10745525 117.37895885 61.2200793 127.75784742 61.33933926 138.13667774 C61.39455063 142.95575988 61.44796783 147.7748481 61.49731445 152.59399414 C61.54498427 157.24298621 61.59732813 161.89190412 61.65294075 166.54080772 C61.67335242 168.31623175 61.69206747 170.0916761 61.70907402 171.867136 C61.73314427 174.35005682 61.7631953 176.83283749 61.79467773 179.31567383 C61.80331093 180.42158371 61.80331093 180.42158371 61.81211853 181.54983521 C61.85665414 184.63110834 62.01796304 187.05388911 63 190 C69.73818499 193.67537363 78.32737523 193.16648832 85.80859375 193.203125 C86.7335817 193.20882507 87.65856964 193.21452515 88.61158752 193.22039795 C90.56388219 193.22980061 92.51619239 193.23636298 94.46850586 193.24023438 C97.39792042 193.24986981 100.32661103 193.28090982 103.25585938 193.3125 C123.49526149 193.4260829 142.24377081 191.92352766 157.61328125 177.484375 C162.06106142 172.73687918 165.04367435 166.9630008 168.16796875 161.3046875 C168.77253906 160.21414062 169.37710938 159.12359375 170 158 C170.46664062 157.03964844 170.93328125 156.07929688 171.4140625 155.08984375 C173 153 173 153 175.48046875 152.51171875 C177.98697917 152.67447917 180.49348958 152.83723958 183 153 C181.1254997 171.745003 174.85397652 189.79758805 170 208 C114.23 208 58.46 208 1 208 C1 205.36 1 202.72 1 200 C2.53720703 199.72736328 2.53720703 199.72736328 4.10546875 199.44921875 C5.4662429 199.19583322 6.82691473 198.9418978 8.1875 198.6875 C9.19780273 198.51057617 9.19780273 198.51057617 10.22851562 198.33007812 C14.40943559 197.53468359 17.45260626 196.31520945 21 194 C21.66 194 22.32 194 23 194 C26.43895391 185.80424578 26.43257933 177.97283127 26.40405273 169.23413086 C26.40976317 167.64973979 26.41673003 166.06535284 26.42485046 164.48097229 C26.44271937 160.20005302 26.44162577 155.91933941 26.43590808 151.63839412 C26.43280817 148.0573237 26.43891735 144.47629233 26.44494683 140.89522749 C26.45896886 132.44566194 26.45744918 123.99619755 26.44604492 115.54663086 C26.43455634 106.84245161 26.44865703 98.13858022 26.4754414 89.43444151 C26.49761741 81.94627689 26.50423178 74.45820879 26.49836498 66.97001368 C26.49499992 62.50409824 26.49738091 58.03838028 26.51461601 53.5724926 C26.53011429 49.37392221 26.52609794 45.17580745 26.50731087 40.97725487 C26.50363343 39.4406162 26.50670877 37.90394355 26.51719666 36.36733627 C26.56753023 28.38049575 26.56909621 21.83292108 22 15 C16.19937772 10.16416294 7.20604079 9.8464592 0 9 C0 6.03 0 3.06 0 0 Z " fill="#F4F4F4" transform="translate(47,45)"/>
<path d="M0 0 C58.08 0 116.16 0 176 0 C177.12683 14.64878996 177.12683 14.64878996 177.31640625 19.90234375 C177.37924805 21.63967773 177.37924805 21.63967773 177.44335938 23.41210938 C177.48267578 24.57548828 177.52199219 25.73886719 177.5625 26.9375 C177.60568359 28.09701172 177.64886719 29.25652344 177.69335938 30.45117188 C177.98001788 38.63686468 178.04905311 46.80968854 178 55 C174.7 55 171.4 55 168 55 C167.69707031 53.74445313 167.39414062 52.48890625 167.08203125 51.1953125 C163.38760186 34.36413139 163.38760186 34.36413139 153.01953125 21.1796875 C145.31005783 16.67628136 135.92696949 15.96538611 127.19140625 15.68359375 C125.95068359 15.64169922 124.70996094 15.59980469 123.43164062 15.55664062 C122.15482422 15.51732422 120.87800781 15.47800781 119.5625 15.4375 C118.25861328 15.39431641 116.95472656 15.35113281 115.61132812 15.30664062 C112.40764684 15.20102476 109.20389389 15.09891899 106 15 C106.06053996 36.91405244 106.13804381 58.8279865 106.23571491 80.74190617 C106.28067079 90.91703823 106.32008597 101.09213532 106.34643555 111.26733398 C106.36941727 120.13655921 106.40281732 129.00567371 106.44870156 137.87481111 C106.47263137 142.57048365 106.49136175 147.26604653 106.49761391 151.96177864 C106.50366582 156.383448 106.52366962 160.80483681 106.55427551 165.22640228 C106.563054 166.84728738 106.56677871 168.46820915 106.56500816 170.08911705 C106.56335063 172.30717543 106.58009424 174.52438339 106.60127258 176.74232483 C106.60588155 177.98213639 106.61049051 179.22194796 106.61523914 180.49932957 C107.13483285 185.22675001 108.39013531 189.32231396 111.76171875 192.8359375 C114.72127363 194.37511264 117.54183956 194.98008104 120.8125 195.625 C121.99457031 195.86476562 123.17664063 196.10453125 124.39453125 196.3515625 C127.92140675 196.98586514 131.44936165 197.51809518 135 198 C135 200.97 135 203.94 135 207 C104.31 207 73.62 207 42 207 C42 204.36 42 201.72 42 199 C43.73636719 198.72736328 43.73636719 198.72736328 45.5078125 198.44921875 C47.04695908 198.19582267 48.58601702 197.94188781 50.125 197.6875 C50.88554687 197.56955078 51.64609375 197.45160156 52.4296875 197.33007812 C57.81854468 196.42419265 62.69177355 195.22578979 66.75 191.3125 C71.14698397 183.17807966 70.30716092 173.81918403 70.31884766 164.85351562 C70.32815574 163.21688344 70.33832572 161.58025597 70.34928894 159.94363403 C70.37650377 155.51863902 70.39171301 151.09367569 70.40471697 146.66861916 C70.42038489 142.03746548 70.4471634 137.40637615 70.4727478 132.77526855 C70.51947087 124.01364894 70.55624626 115.25201714 70.58942068 106.49033689 C70.62768786 96.51206679 70.67708595 86.53386142 70.72740483 76.55564594 C70.8306284 56.03714514 70.91991987 35.51860333 71 15 C67.12577026 15.07016566 63.25238507 15.15869727 59.37890625 15.26245117 C57.43249854 15.31106394 55.48576809 15.34616757 53.5390625 15.38085938 C35.51180063 15.81866478 35.51180063 15.81866478 20 24 C14.87512055 30.22189048 12.35483941 36.90502874 10.125 44.5625 C9.81820313 45.57119141 9.51140625 46.57988281 9.1953125 47.61914062 C8.45017712 50.07575884 7.71877934 52.5355679 7 55 C4.03 55 1.06 55 -2 55 C-2.11678255 43.0103249 -1.9748449 31.04632264 -1.5625 19.0625 C-1.52326416 17.86077148 -1.48402832 16.65904297 -1.44360352 15.42089844 C-1.40162842 14.28297852 -1.35965332 13.14505859 -1.31640625 11.97265625 C-1.27974854 10.96468994 -1.24309082 9.95672363 -1.20532227 8.91821289 C-0.99478255 5.92584519 -0.49315837 2.9589502 0 0 Z " fill="#EBEBEB" transform="translate(374,46)"/>
<path d="M0 0 C31.02 0 62.04 0 94 0 C94 2.64 94 5.28 94 8 C92.94941406 8.09796875 91.89882813 8.1959375 90.81640625 8.296875 C77.94613899 9.19210286 77.94613899 9.19210286 67.46700668 15.80418396 C62.45870877 23.30060577 63.71416937 34.13404975 63.74121094 42.74609375 C63.73849556 44.20915907 63.73493157 45.67222302 63.73059082 47.13528442 C63.72152955 51.08155339 63.72498503 55.02771694 63.73134899 58.97398758 C63.7364416 63.11994951 63.73170852 67.26590291 63.72857666 71.41186523 C63.72494648 78.3719239 63.72971118 85.33194 63.73925781 92.29199219 C63.75014053 100.31840266 63.74661429 108.34471149 63.735605 116.3711195 C63.72650506 123.28438017 63.72526006 130.1976104 63.73048234 137.11087513 C63.73358719 141.23025489 63.73405248 145.349587 63.72740936 149.46896362 C63.721597 153.34323721 63.72570335 157.2173808 63.73719788 161.09164047 C63.73982378 162.50649679 63.73911514 163.9213642 63.73467255 165.33621597 C63.50253389 179.63969251 63.50253389 179.63969251 68 193 C70.21776622 194.30514736 70.21776622 194.30514736 73 195 C73.969375 195.33 74.93875 195.66 75.9375 196 C81.81202637 197.65221054 87.96319353 198.2129545 94 199 C94 201.64 94 204.28 94 207 C62.98 207 31.96 207 0 207 C0 204.36 0 201.72 0 199 C1.84464844 198.72736328 1.84464844 198.72736328 3.7265625 198.44921875 C5.35945672 198.19583861 6.99226481 197.94190292 8.625 197.6875 C9.83736328 197.51057617 9.83736328 197.51057617 11.07421875 197.33007812 C16.56070426 196.46026945 21.77464612 195.56590621 25.5893898 191.16738129 C30.52028754 183.59113132 29.28575613 172.8099075 29.25878906 164.16210938 C29.26150439 162.68919197 29.26506834 161.21627593 29.26940918 159.74336243 C29.2784711 155.77023505 29.27501469 151.79721237 29.26865101 147.82408333 C29.26355874 143.65009419 29.26829138 139.47611354 29.27142334 135.30212402 C29.27505362 128.29498702 29.27028856 121.28789229 29.26074219 114.28076172 C29.24985945 106.19981991 29.25338569 98.11897905 29.264395 90.03803968 C29.27349466 83.07807033 29.27474008 76.11813122 29.26951766 69.15815783 C29.26641266 65.0108325 29.26594795 60.86355451 29.27259064 56.7162323 C29.27840258 52.8156942 29.2742974 48.91528524 29.26280212 45.01476097 C29.260176 43.5902293 29.26088525 42.16568661 29.26532745 40.74115944 C29.48928006 27.45937665 29.48928006 27.45937665 25.375 15.0625 C18.43235243 9.03335869 8.76408593 8.96998347 0 8 C0 5.36 0 2.72 0 0 Z " fill="#F9F9F9" transform="translate(254,46)"/>
<path d="M0 0 C0.93456514 -0.00436032 1.86913028 -0.00872064 2.83201557 -0.0132131 C5.98124733 -0.02421038 9.13004502 -0.01372635 12.27927399 -0.00342751 C14.55279309 -0.00688229 16.82631052 -0.01164564 19.09982443 -0.01760924 C25.36118708 -0.03017343 31.62241318 -0.02392422 37.88377643 -0.01465058 C43.9384616 -0.00857722 49.99311776 -0.01654616 56.04779722 -0.02409268 C69.19865907 -0.03990326 82.34947725 -0.03851542 95.50034328 -0.02985594 C107.0087454 -0.022315 118.5171315 -0.02033649 130.02553558 -0.02392387 C130.78834334 -0.02415303 131.55115109 -0.02438218 132.33707423 -0.02461828 C135.43340943 -0.02555227 138.52974462 -0.02650747 141.6260798 -0.02749758 C170.68351722 -0.03667856 199.74092678 -0.02834788 228.79835989 -0.01220688 C254.62506135 0.00203037 280.45171843 0.00075651 306.27841949 -0.01358986 C335.28205563 -0.02964704 364.28566715 -0.0360275 393.28930712 -0.02675307 C396.38006369 -0.02579089 399.47082026 -0.02485237 402.56157684 -0.02392387 C403.32262314 -0.02368664 404.08366944 -0.02344941 404.86777775 -0.02320499 C416.37011816 -0.01978979 427.8724408 -0.02378856 439.37477875 -0.03136253 C452.45092823 -0.03992979 465.52702712 -0.03781834 478.60317028 -0.0215203 C485.27912468 -0.01347435 491.95500876 -0.01058006 498.63096809 -0.02046776 C504.73625557 -0.0293737 510.84136876 -0.02454968 516.94664031 -0.0085351 C519.16123367 -0.00516986 521.3758416 -0.00692017 523.59042567 -0.01416247 C526.58953369 -0.02322185 529.58803656 -0.01399254 532.58711243 0 C533.45654246 -0.0070235 534.32597249 -0.014047 535.22174889 -0.02128333 C539.91985435 0.02283618 542.96533164 0.35837373 546.79355621 3.37752342 C550.96017877 7.89136453 551.91489598 11.15534153 551.92777729 17.1733799 C551.93223513 18.14131108 551.93669298 19.10924225 551.94128591 20.10650468 C551.94100936 21.69753121 551.94100936 21.69753121 551.94072723 23.32069969 C551.94440392 24.44961687 551.94808061 25.57853405 551.95186871 26.74166083 C551.96291461 30.53858053 551.96675092 34.33547287 551.97055817 38.13240623 C551.97629 40.84904782 551.98345594 43.5656853 551.99047089 46.28232384 C552.01022101 54.44390506 552.020299 62.60548749 552.02919868 70.76708663 C552.03358337 74.61137194 552.03894965 78.45565588 552.04418755 82.29994011 C552.06119727 95.0801229 552.07569176 107.86030484 552.08293629 120.64049721 C552.08484615 123.95599684 552.08676649 127.27149647 552.08872223 130.58699608 C552.08920597 131.41103588 552.08968971 132.23507568 552.09018811 133.08408639 C552.09848969 146.43508085 552.12382991 159.78598576 552.15630291 173.13694111 C552.18937595 186.84641862 552.20738521 200.55585061 552.21058053 214.26536822 C552.21274524 221.9618598 552.22148836 229.65822071 552.2470417 237.35467339 C552.26875195 243.90869155 552.27679752 250.46254731 552.26707492 257.01659736 C552.26253118 260.35950851 552.26660324 263.70181298 552.28383636 267.04472351 C552.30149077 270.6722366 552.29447973 274.29889933 552.28130341 277.92641258 C552.29775727 279.50405478 552.29775727 279.50405478 552.31454355 281.11356854 C552.26163055 287.14651569 551.77562173 292.58387898 547.79355621 297.37752342 C542.72392519 301.71244823 538.7793302 301.94924274 532.41721249 301.88088799 C531.47642838 301.88670175 530.53564428 301.89251551 529.56635156 301.89850545 C526.40187327 301.9131476 523.23816546 301.89920016 520.07369232 301.88545799 C517.78693401 301.89006521 515.50017865 301.89641692 513.21342951 301.90436697 C506.92008656 301.92110767 500.62698538 301.91279227 494.33364141 301.9004221 C488.24668218 301.89232026 482.15978158 301.90295192 476.07283021 301.91301156 C462.8532137 301.93408546 449.63367446 301.93224471 436.41405058 301.92069591 C424.84607662 301.91063943 413.27813101 301.9080042 401.71015358 301.91278648 C400.5598065 301.91324479 400.5598065 301.91324479 399.38622008 301.91371236 C396.27325535 301.91495769 393.16029063 301.91623128 390.04732593 301.91755142 C360.83781252 301.92979098 331.62834837 301.91868772 302.41884255 301.89716383 C276.45770184 301.87817911 250.4966396 301.87988109 224.53549957 301.8990078 C195.37839874 301.92041723 166.22134144 301.92892491 137.06423384 301.91655874 C133.9572036 301.91527584 130.85017334 301.91402448 127.74314308 301.91278648 C126.97809383 301.91247017 126.21304458 301.91215386 125.42481202 301.91182797 C113.86231482 301.9072745 102.29984904 301.91260579 90.73735619 301.9227047 C77.59351044 301.93412744 64.44975415 301.93131294 51.30591958 301.90958172 C44.59549385 301.89885367 37.88524766 301.8949948 31.17481232 301.90817833 C25.03805881 301.92005277 18.90161357 301.91362145 12.76488823 301.89226812 C10.53888609 301.88778105 8.31285817 301.8901151 6.08687245 301.89977127 C3.07222551 301.91185061 0.05864887 301.89954607 -2.9559412 301.88088799 C-4.26687703 301.89493498 -4.26687703 301.89493498 -5.60429642 301.90926576 C-9.67370297 301.85856817 -11.70308262 301.69574206 -15.2221002 299.47106314 C-18.70454083 295.79698784 -18.36592711 292.63652359 -18.38344574 287.81014061 C-18.39330254 286.63910034 -18.39330254 286.63910034 -18.40335846 285.44440269 C-18.42310826 282.85440033 -18.43475862 280.26445604 -18.44472504 277.67439842 C-18.44880056 276.79008392 -18.45287609 275.90576942 -18.45707512 274.99465752 C-18.47794442 270.3128743 -18.49224162 265.63112046 -18.5016098 260.94930077 C-18.51266772 256.11597682 -18.54705789 251.2831141 -18.5867815 246.44995308 C-18.6129446 242.73184422 -18.62130143 239.01384521 -18.62489128 235.29565239 C-18.62975913 233.51428429 -18.64137882 231.73292115 -18.65992928 229.95164299 C-18.68431156 227.45488696 -18.68335756 224.95932332 -18.67641449 222.46248436 C-18.68922455 221.72978828 -18.70203461 220.99709221 -18.71523285 220.24219322 C-18.6637733 215.15165331 -17.36522483 212.32034751 -14.20644379 208.37752342 C-12.20644379 206.44002342 -12.20644379 206.44002342 -10.20644379 205.37752342 C-8.08144379 205.81111717 -8.08144379 205.81111717 -6.20644379 206.37752342 C-6.91576553 206.82110191 -7.62508728 207.2646804 -8.35590363 207.72170067 C-12.883396 211.04945634 -15.77625754 213.59085433 -17.12090302 219.17549706 C-17.54184743 223.82980536 -17.41238032 228.47744346 -17.28847504 233.14314842 C-17.27741837 234.8670656 -17.27037981 236.59101277 -17.26715851 238.31496239 C-17.25038071 241.91340535 -17.20122418 245.50933436 -17.12563324 249.10701561 C-17.0292038 253.71277116 -16.98955944 258.31670101 -16.97095966 262.92336464 C-16.95066269 267.3301977 -16.90173399 271.73657922 -16.85097504 276.14314842 C-16.84381784 276.97987335 -16.83666065 277.81659828 -16.82928658 278.67867851 C-16.80389338 281.05056282 -16.75809175 283.42113906 -16.70571136 285.79256248 C-16.70078674 286.48980431 -16.69586212 287.18704613 -16.69078827 287.90541649 C-16.568199 292.1962069 -15.81980464 294.95309021 -13.20644379 298.37752342 C-9.85073357 300.05537853 -6.06223741 299.51480614 -2.3719368 299.50615788 C-1.44113279 299.50791091 -0.51032878 299.50966395 0.44868141 299.51147011 C3.60306251 299.51616393 6.7573982 299.51365597 9.91178131 299.51123619 C12.18199665 299.51310247 14.45221167 299.51540243 16.72242618 299.51810151 C22.98859461 299.52424868 29.25474975 299.52408251 35.52092052 299.52290714 C41.57609262 299.52272471 47.63126013 299.52720778 53.68643026 299.53152003 C67.60846851 299.54120726 81.53050308 299.54400479 95.4525443 299.54457708 C106.20235195 299.54503609 116.95215815 299.54709165 127.70196533 299.55027771 C130.79293338 299.55117522 133.88390144 299.55206503 136.97486949 299.55295259 C137.74323269 299.55317364 138.51159589 299.55339468 139.30324282 299.55362243 C160.92595605 299.55977955 182.54866877 299.5637227 204.1713829 299.56327915 C204.98715556 299.56326357 205.80292822 299.56324799 206.64342127 299.56323194 C210.77837049 299.56314883 214.91331972 299.56304979 219.04826894 299.56294724 C219.86952684 299.56292729 220.69078473 299.56290735 221.53692922 299.5628868 C223.1977146 299.56284636 224.85849997 299.56280456 226.51928535 299.5627614 C252.35892423 299.56214864 278.19854999 299.56965428 304.03818512 299.58333397 C333.04986072 299.59868652 362.0615277 299.60730067 391.07320762 299.60637075 C394.16543309 299.60629611 397.25765856 299.60624741 400.34988403 299.60621643 C401.4920116 299.60619895 401.4920116 299.60619895 402.65721245 299.60618111 C414.92414081 299.60615031 427.19105781 299.61254326 439.4579828 299.6211487 C451.78237009 299.62961574 464.10674072 299.6306226 476.43112931 299.62403937 C483.11122678 299.62066372 489.79129182 299.62075545 496.47138786 299.62939262 C502.58174386 299.63721208 508.6920255 299.63587313 514.80237958 299.62710849 C517.01775542 299.62556339 519.23313669 299.6274273 521.44850615 299.63296857 C524.45099009 299.63998362 527.45320996 299.63477045 530.45568466 299.62641239 C531.32334522 299.63138057 532.19100578 299.63634875 533.08495909 299.64146748 C537.69082623 299.61421033 541.50436188 299.27547453 545.79355621 297.37752342 C547.18593668 295.51005079 547.18593668 295.51005079 547.79355621 293.37752342 C548.12355621 292.38752342 548.45355621 291.39752342 548.79355621 290.37752342 C548.88647355 288.80364148 548.92266297 287.22610336 548.92498398 285.64948273 C548.92882512 284.67124231 548.93266627 283.6930019 548.93662381 282.68511784 C548.93532409 281.06914324 548.93532409 281.06914324 548.93399811 279.42052269 C548.93696923 278.27809258 548.93994035 277.13566248 548.94300151 275.95861328 C548.95018835 272.78259507 548.95286133 269.60660978 548.95359898 266.43058467 C548.9554487 263.00719073 548.96299558 259.58380853 548.96973419 256.16042137 C548.98332077 248.67290041 548.98934259 241.1853848 548.99374485 233.69785357 C548.99650642 229.02410868 549.00074359 224.35036587 549.00524902 219.67662239 C549.01744154 206.74034632 549.02774126 193.80407191 549.03112411 180.86779022 C549.03145346 179.62568826 549.03145346 179.62568826 549.03178947 178.35849332 C549.03200774 177.52842948 549.03222602 176.69836564 549.03245091 175.84314835 C549.03289438 174.16108457 549.03334095 172.47902079 549.03379059 170.79695702 C549.03412273 169.5454109 549.03412273 169.5454109 549.03446159 168.26858102 C549.03841093 154.74415134 549.05586917 141.21977551 549.07915011 127.69536664 C549.10285077 113.81530305 549.11532536 99.93526649 549.11649203 86.05518234 C549.11740946 78.25987051 549.12317879 70.46462885 549.14131165 62.66933632 C549.15669523 56.0325148 549.1618434 49.39578513 549.15357354 42.75894918 C549.14966097 39.37199401 549.150626 35.98522391 549.16463089 32.5982914 C549.1772618 28.92819707 549.17152153 25.25858181 549.16104889 21.58849144 C549.16910529 20.51563648 549.1771617 19.44278153 549.18546224 18.33741581 C549.14188763 11.83442452 548.52423261 8.10819982 543.79355621 3.37752342 C539.55204906 1.98299887 535.20071437 2.22905791 530.78380299 2.22933578 C529.39561386 2.22356047 529.39561386 2.22356047 527.97938052 2.21766847 C524.85520466 2.20592982 521.73105885 2.20133169 518.60686493 2.19670677 C516.35355988 2.1898305 514.10025606 2.18254197 511.84695357 2.1748749 C505.63671189 2.15510595 499.42647031 2.14174406 493.21620977 2.12952638 C489.24552713 2.12112529 485.27485199 2.11091899 481.30417633 2.09977531 C480.6373805 2.09790616 479.97058467 2.09603701 479.28358291 2.09411121 C477.92368115 2.0902941 476.56377941 2.08647529 475.20387766 2.08265482 C456.82363666 2.03152668 438.44336994 1.99576759 420.06308746 1.96346092 C419.31059954 1.96213691 418.55811161 1.9608129 417.78282103 1.95944876 C387.99516461 1.90725819 358.20749451 1.86288615 328.41980852 1.8316548 C321.04072873 1.82390196 313.66164925 1.81585464 306.28256989 1.8076992 C305.46719931 1.80680526 304.65182873 1.80591131 303.81174996 1.80499028 C277.37080049 1.77577927 250.93004699 1.71477791 224.48920132 1.63631536 C197.30939775 1.55580675 170.12969998 1.50455017 142.94977617 1.4911965 C139.11160229 1.48930344 135.27342865 1.48709021 131.43525505 1.48468971 C130.67986455 1.48422941 129.92447404 1.4837691 129.14619292 1.48329484 C116.98584284 1.47505313 104.82577418 1.43619879 92.6655327 1.38607391 C80.44433133 1.33639227 68.22343383 1.31965318 56.00214002 1.33649783 C49.38014432 1.34472663 42.75883105 1.33730466 36.13692284 1.2912159 C30.07600122 1.24936236 24.01654857 1.24893428 17.95558377 1.28164609 C15.76172462 1.28614987 13.56777058 1.27538081 11.37407897 1.247896 C-1.81138494 0.64568121 -1.81138494 0.64568121 -13.00147724 6.57885742 C-17.35355339 11.84762703 -17.44365518 17.22120653 -17.26113129 23.82283592 C-17.26025513 24.99208611 -17.25937897 26.16133629 -17.25847626 27.3660183 C-17.2471243 29.82528685 -17.21393499 32.28454157 -17.16005707 34.74324608 C-17.081513 38.49921357 -17.0779811 42.24974768 -17.08535004 46.00642967 C-17.06502904 48.40360662 -17.04043488 50.80075195 -17.01113129 53.19783592 C-17.00870422 54.31465752 -17.00627716 55.43147911 -17.00377655 56.58214378 C-16.81531269 63.49414043 -15.90700103 67.22409892 -11.20644379 72.37752342 C-8.50652539 74.21367482 -6.02663392 74.67991412 -2.83144379 75.19002342 C1.97917412 76.19652832 4.36814207 77.86856259 7.79355621 81.37752342 C9.59248163 84.33084132 10.04534392 86.51783467 10.05425262 89.95622826 C10.06133743 90.87019875 10.06842224 91.78416924 10.07572174 92.7258358 C10.07324432 93.72125893 10.07076691 94.71668205 10.06821442 95.74226952 C10.07588081 97.32339783 10.07588081 97.32339783 10.08370209 98.93646812 C10.09761422 102.42468998 10.09663996 105.9127146 10.09433746 109.40096092 C10.09822371 111.8246779 10.10255823 114.24839419 10.10732269 116.6721096 C10.11478855 121.75460072 10.1144911 126.83702238 10.10923004 131.91951561 C10.10343724 138.43194699 10.12036035 144.94409379 10.14357471 151.45647812 C10.15830897 156.46306076 10.15918412 161.46957483 10.15606499 166.47617531 C10.15657843 168.87713878 10.16182038 171.27810607 10.17187691 173.67904854 C10.18421663 177.03754961 10.17746375 180.39549604 10.16587067 183.75398827 C10.17733627 185.24105026 10.17733627 185.24105026 10.18903351 186.75815392 C10.14876904 192.03701932 9.81589778 195.84065256 6.79355621 200.37752342 C4.60605621 201.75252342 4.60605621 201.75252342 2.79355621 202.37752342 C3.43293121 201.47002342 4.07230621 200.56252342 4.73105621 199.62752342 C7.29405821 195.58885361 7.91395113 192.71920919 7.94072723 188.00209618 C7.94788254 187.13308678 7.95503784 186.26407738 7.96240997 185.36873436 C7.96509888 184.42320702 7.96778778 183.47767967 7.97055817 182.50349998 C7.97712936 181.50139488 7.98370056 180.49928978 7.99047089 179.46681786 C8.01018089 176.15059393 8.02186118 172.83441524 8.03183746 169.51814842 C8.03591299 168.38441544 8.03998852 167.25068245 8.04418755 166.08259392 C8.0650381 160.0822728 8.07934445 154.08197448 8.08872223 148.08162498 C8.09978677 141.88994598 8.13419053 135.69862634 8.17389393 129.50707436 C8.20005919 124.74061484 8.20841399 119.974241 8.21200371 115.20771599 C8.21686955 112.92561223 8.2284834 110.64351229 8.2470417 108.36147881 C8.27143127 105.16373895 8.27046812 101.96692969 8.26352692 98.76912498 C8.27633698 97.83169456 8.28914703 96.89426414 8.30234528 95.92842674 C8.25553454 89.99408862 7.29928222 85.2807718 3.79355621 80.37752342 C0.36680127 77.98676416 -2.67432814 77.29163659 -6.70644379 76.62752342 C-11.32297775 75.72293231 -13.31246692 73.70518197 -16.11269379 70.03377342 C-18.18909227 66.88951286 -18.34533102 64.8737792 -18.38344574 61.12093163 C-18.39628098 60.02251442 -18.40911621 58.92409721 -18.42234039 57.79239464 C-18.42972733 56.59974495 -18.43711426 55.40709526 -18.44472504 54.17830467 C-18.45279678 52.95475777 -18.46086853 51.73121086 -18.46918488 50.47058678 C-18.4830372 47.8755339 -18.49375419 45.28046271 -18.5016098 42.68538475 C-18.51879774 38.72368651 -18.56267272 34.76282789 -18.60683441 30.80135155 C-18.61696325 28.2811754 -18.62547875 25.76099215 -18.63222504 23.24080467 C-18.64973312 22.05827614 -18.66724121 20.8757476 -18.68527985 19.65738487 C-18.66787594 13.0292507 -18.38723175 8.65139788 -14.20644379 3.37752342 C-9.68403763 -0.24620712 -5.53597631 -0.04472116 0 0 Z " fill="#909090" transform="translate(33.206443786621094,8.622476577758789)"/>
<path d="M0 0 C0.33 0 0.66 0 1 0 C1.09156742 35.1519654 1.16204475 70.30390666 1.20426132 105.45596623 C1.20926411 109.6065493 1.2144414 113.75713213 1.21972656 117.90771484 C1.22130043 119.14716756 1.22130043 119.14716756 1.22290608 120.41165972 C1.24030848 133.78876823 1.27184526 147.16580794 1.30861118 160.54287565 C1.34602521 174.27030063 1.36823683 187.99768959 1.37635398 201.72516346 C1.3818408 210.19489555 1.39916667 218.66443316 1.43166587 227.13410538 C1.45281947 232.94309889 1.45919814 238.75199193 1.45400551 244.56102115 C1.45144496 247.91201214 1.45754374 251.26238977 1.4768219 254.61336708 C1.49671764 258.24984009 1.49193956 261.88548046 1.48101807 265.52197266 C1.49266943 266.5764626 1.5043208 267.63095255 1.51632524 268.71739674 C1.46728206 274.75730046 0.98902968 280.20137279 -3 285 C-8.06979471 289.33481209 -12.01414199 289.57172022 -18.37634373 289.50336456 C-19.31712783 289.50917833 -20.25791194 289.51499209 -21.22720465 289.52098203 C-24.39168295 289.53562418 -27.55539075 289.52167674 -30.71986389 289.50793457 C-33.00662221 289.51254179 -35.29337757 289.5188935 -37.5801267 289.52684355 C-43.87346965 289.54358425 -50.16657084 289.53526885 -56.4599148 289.52289867 C-62.54687404 289.51479684 -68.63377463 289.5254285 -74.720726 289.53548814 C-87.94034251 289.55656204 -101.15988175 289.55472128 -114.37950564 289.54317249 C-125.94747959 289.533116 -137.5154252 289.53048078 -149.08340263 289.53526306 C-150.23374972 289.53572137 -150.23374972 289.53572137 -151.40733613 289.53618894 C-154.52030086 289.53743426 -157.63326558 289.53870786 -160.74623028 289.540028 C-189.95574369 289.55226756 -219.16520785 289.54116429 -248.37471366 289.51964041 C-274.33585437 289.50065568 -300.29691661 289.50235767 -326.25805664 289.52148438 C-355.41515747 289.5428938 -384.57221477 289.55140148 -413.72932237 289.53903532 C-416.83635262 289.53775242 -419.94338287 289.53650106 -423.05041313 289.53526306 C-423.81546238 289.53494675 -424.58051163 289.53463044 -425.36874419 289.53430455 C-436.93124139 289.52975108 -448.49370717 289.53508237 -460.05620003 289.54518127 C-473.20004578 289.55660402 -486.34380207 289.55378952 -499.48763663 289.5320583 C-506.19806236 289.52133024 -512.90830855 289.51747138 -519.6187439 289.53065491 C-525.7554974 289.54252934 -531.89194264 289.53609803 -538.02866798 289.5147447 C-540.25467012 289.51025763 -542.48069804 289.51259168 -544.70668376 289.52224785 C-547.7213307 289.53432719 -550.73490734 289.52202265 -553.74949741 289.50336456 C-555.06043325 289.51741156 -555.06043325 289.51741156 -556.39785263 289.53174233 C-560.46725919 289.48104475 -562.49663884 289.31821863 -566.01565641 287.09353971 C-569.49809704 283.41946442 -569.15948332 280.25900017 -569.17700195 275.43261719 C-569.18685875 274.26157692 -569.18685875 274.26157692 -569.19691467 273.06687927 C-569.21666447 270.47687691 -569.22831483 267.88693262 -569.23828125 265.296875 C-569.24235678 264.4125605 -569.2464323 263.528246 -569.25063133 262.61713409 C-569.27150063 257.93535088 -569.28579783 253.25359703 -569.29516602 248.57177734 C-569.30622393 243.7384534 -569.3406141 238.90559068 -569.38033772 234.07242966 C-569.40650081 230.3543208 -569.41485764 226.63632178 -569.41844749 222.91812897 C-569.42331535 221.13676086 -569.43493503 219.35539773 -569.45348549 217.57411957 C-569.47786777 215.07736354 -569.47691377 212.5817999 -569.4699707 210.08496094 C-569.48278076 209.35226486 -569.49559082 208.61956879 -569.50878906 207.8646698 C-569.45732951 202.77412989 -568.15878105 199.94282409 -565 196 C-563 194.0625 -563 194.0625 -561 193 C-558.875 193.43359375 -558.875 193.43359375 -557 194 C-557.70932175 194.44357849 -558.41864349 194.88715698 -559.14945984 195.34417725 C-563.67695221 198.67193292 -566.56981375 201.21333091 -567.91445923 206.79797363 C-568.33540364 211.45228194 -568.20593653 216.09992003 -568.08203125 220.765625 C-568.07097458 222.48954217 -568.06393602 224.21348934 -568.06071472 225.93743896 C-568.04393693 229.53588192 -567.99478039 233.13181094 -567.91918945 236.72949219 C-567.82276002 241.33524773 -567.78311565 245.93917759 -567.76451588 250.54584122 C-567.7442189 254.95267428 -567.6952902 259.3590558 -567.64453125 263.765625 C-567.63737406 264.60234993 -567.63021687 265.43907486 -567.62284279 266.30115509 C-567.5974496 268.6730394 -567.55164797 271.04361564 -567.49926758 273.41503906 C-567.49434296 274.11228088 -567.48941833 274.80952271 -567.48434448 275.52789307 C-567.36175522 279.81868348 -566.61336085 282.57556679 -564 286 C-560.64428979 287.67785511 -556.85579362 287.13728271 -553.16549301 287.12863445 C-552.234689 287.13038749 -551.30388499 287.13214053 -550.3448748 287.13394669 C-547.1904937 287.13864051 -544.03615801 287.13613255 -540.8817749 287.13371277 C-538.61155956 287.13557905 -536.34134454 287.13787901 -534.07113004 287.14057809 C-527.80496161 287.14672526 -521.53880646 287.14655909 -515.2726357 287.14538372 C-509.21746359 287.14520129 -503.16229608 287.14968436 -497.10712596 287.1539966 C-483.18508771 287.16368383 -469.26305313 287.16648137 -455.34101191 287.16705366 C-444.59120426 287.16751267 -433.84139806 287.16956823 -423.09159088 287.17275429 C-420.00062283 287.17365179 -416.90965478 287.17454161 -413.81868672 287.17542917 C-413.05032352 287.17565021 -412.28196032 287.17587126 -411.49031339 287.17609901 C-389.86760017 287.18225613 -368.24488745 287.18619928 -346.62217331 287.18575573 C-345.80640065 287.18574015 -344.99062799 287.18572457 -344.15013495 287.18570852 C-340.01518572 287.18562541 -335.88023649 287.18552637 -331.74528727 287.18542381 C-330.92402938 287.18540387 -330.10277148 287.18538392 -329.25662699 287.18536337 C-327.59584162 287.18532294 -325.93505624 287.18528114 -324.27427087 287.18523798 C-298.43463198 287.18462521 -272.59500622 287.19213086 -246.75537109 287.20581055 C-217.74369549 287.2211631 -188.73202852 287.22977725 -159.7203486 287.22884732 C-156.62812312 287.22877269 -153.53589765 287.22872399 -150.44367218 287.22869301 C-149.30154462 287.22867553 -149.30154462 287.22867553 -148.13634377 287.22865769 C-135.8694154 287.22862689 -123.6024984 287.23501983 -111.33557342 287.24362527 C-99.01118612 287.25209232 -86.6868155 287.25309918 -74.36242691 287.24651595 C-67.68232943 287.2431403 -61.0022644 287.24323203 -54.32216835 287.2518692 C-48.21181236 287.25968866 -42.10153071 287.25834971 -35.99117664 287.24958507 C-33.77580079 287.24803997 -31.56041952 287.24990388 -29.34505007 287.25544515 C-26.34256612 287.2624602 -23.34034626 287.25724703 -20.33787155 287.24888897 C-19.47021099 287.25385715 -18.60255043 287.25882533 -17.70859712 287.26394406 C-13.10077445 287.23667534 -9.2943091 286.88974073 -5 285 C-3.6501992 283.21734114 -3.6501992 283.21734114 -3 281 C-2.48989362 279.847211 -2.48989362 279.847211 -1.96948206 278.67113334 C-0.9751752 275.93160229 -0.74617855 273.97188918 -0.73828697 271.07436657 C-0.72708873 269.61730794 -0.72708873 269.61730794 -0.71566427 268.13081378 C-0.717599 267.07147626 -0.71953374 266.01213873 -0.7215271 264.92070007 C-0.7157347 263.7893675 -0.7099423 262.65803492 -0.70397437 261.49241954 C-0.68694125 257.6937295 -0.68409497 253.89516072 -0.68115234 250.09643555 C-0.67295957 247.37651259 -0.66177563 244.65660387 -0.65071106 241.93669128 C-0.62844087 236.07689109 -0.61342615 230.21710836 -0.60334396 224.35727501 C-0.58875635 215.88495403 -0.5632193 207.41269386 -0.53501268 198.94040857 C-0.48954619 185.1945821 -0.45293078 171.44874688 -0.421875 157.70288086 C-0.39168888 144.35032615 -0.35733832 130.99779287 -0.31738281 117.64526367 C-0.31492126 116.82216651 -0.31245972 115.99906935 -0.30992357 115.15102985 C-0.29754896 111.02177915 -0.28509243 106.8925287 -0.27259517 102.76327837 C-0.1690295 68.50888148 -0.07982554 34.25446025 0 0 Z " fill="#090909" transform="translate(584,21)"/>
<path d="M0 0 C55.11 0 110.22 0 167 0 C167.33 15.51 167.66 31.02 168 47 C164.7 47 161.4 47 158 47 C157.69707031 45.9378125 157.39414063 44.875625 157.08203125 43.78125 C153.48063092 30.79062147 153.48063092 30.79062147 145.0625 20.625 C137.7897348 16.76598173 130.52311215 15.87642671 122.36206055 15.87060547 C121.08771652 15.86745331 119.8133725 15.86430115 118.50041199 15.86105347 C117.12918055 15.86284262 115.75794943 15.86489341 114.38671875 15.8671875 C112.96661869 15.86651311 111.54651874 15.86554196 110.12641907 15.86428833 C107.1636138 15.86282012 104.20083884 15.86493922 101.23803711 15.86962891 C97.43709015 15.87535184 93.63621341 15.87202554 89.83526897 15.86605644 C86.90911831 15.86244933 83.98298442 15.86358965 81.05683327 15.86618423 C79.65456954 15.86685174 78.2523043 15.86603122 76.85004234 15.86370468 C74.89701745 15.86117294 72.94398721 15.86571407 70.9909668 15.87060547 C69.87956833 15.87140106 68.76816986 15.87219666 67.62309265 15.87301636 C65.01924341 15.82227746 65.01924341 15.82227746 63 17 C61.83808371 20.48574888 61.83961986 23.27111727 61.79467773 26.94995117 C61.78477814 27.65264633 61.77487854 28.35534149 61.76467896 29.07933044 C61.73310766 31.40050901 61.70832387 33.72170805 61.68359375 36.04296875 C61.66302044 37.65294423 61.64202387 39.26291436 61.62062073 40.87287903 C61.56543894 45.10936138 61.51601251 49.34589216 61.46777344 53.5824585 C61.40869551 58.66613816 61.34248895 63.74972935 61.27747345 68.83333588 C61.17951289 76.55550319 61.09062342 84.27772738 61 92 C78.49 92 95.98 92 114 92 C114 92.33 114 92.66 114 93 C96.18 93 78.36 93 60 93 C59.87967357 74.15331615 59.87967357 74.15331615 59.85351562 66.13085938 C59.8355695 60.65282495 59.81432029 55.17494069 59.77368164 49.69702148 C59.74112874 45.28148565 59.72315559 40.8661108 59.71536827 36.45046425 C59.70981742 34.76431048 59.69897815 33.0781657 59.68280983 31.39208031 C59.66108925 29.03357146 59.65803076 26.67573115 59.65942383 24.31713867 C59.648638 23.61726837 59.63785217 22.91739807 59.6267395 22.19631958 C59.64489519 19.36290167 59.67520451 17.46141537 61.33378601 15.10517883 C64.64973349 12.90575248 67.6018895 12.86966851 71.45849609 12.85473633 C72.57751312 12.84835648 73.69653015 12.84197662 74.84945679 12.83540344 C76.66807724 12.83373421 76.66807724 12.83373421 78.5234375 12.83203125 C79.77573151 12.82870285 81.02802551 12.82537445 82.31826782 12.82194519 C84.97637466 12.81687503 87.63437938 12.81410494 90.29248047 12.81469727 C92.99632524 12.81477807 95.69999897 12.80791312 98.40380859 12.79418945 C102.31873685 12.77571149 106.23346974 12.7709529 110.1484375 12.76953125 C111.34060883 12.76234573 112.53278015 12.75516022 113.76107788 12.74775696 C127.43235385 12.78431501 141.47351198 13.47351198 151.625 23.625 C156.48932214 29.83877926 158.42690517 37.26321985 159 45 C161.31 45 163.62 45 166 45 C166 30.48 166 15.96 166 1 C111.55 1 57.1 1 1 1 C1 3.31 1 5.62 1 8 C1.556875 7.97679687 2.11375 7.95359375 2.6875 7.9296875 C10.88197003 7.73589936 17.47638073 8.66249332 24 14 C28.55184577 19.78207435 29.1219421 24.38492713 29.14044189 31.58369446 C29.14341302 32.23160688 29.14638414 32.8795193 29.1494453 33.54706544 C29.15809152 35.71018252 29.15963706 37.87324399 29.16113281 40.03637695 C29.16576384 41.59061805 29.17078888 43.14485802 29.17617798 44.69909668 C29.18927567 48.91614499 29.19574167 53.13317739 29.20018864 57.35024285 C29.20312332 59.98676977 29.20722885 62.62329238 29.21169281 65.25981712 C29.22536016 73.51446649 29.23503082 81.76910597 29.2388947 90.02376586 C29.24337519 99.54245355 29.26092582 109.06099762 29.2898953 118.57964164 C29.31152974 125.94456535 29.32159991 133.3094487 29.32293582 140.67440385 C29.32398249 145.06993683 29.32986095 149.46533468 29.34775543 153.86083412 C29.36426687 157.99688641 29.36637678 162.13270239 29.35761642 166.26877594 C29.35684772 167.78284273 29.36116674 169.29692239 29.37107468 170.81095695 C29.46109816 185.43005983 29.46109816 185.43005983 26 192 C24.515 192.99 24.515 192.99 23 194 C23.48666641 192.84017105 23.97333282 191.6803421 24.4747467 190.48536682 C26.76463929 183.55508901 26.42758963 176.44431043 26.40405273 169.23413086 C26.40976317 167.64973979 26.41673003 166.06535284 26.42485046 164.48097229 C26.44271937 160.20005302 26.44162577 155.91933941 26.43590808 151.63839412 C26.43280817 148.0573237 26.43891735 144.47629233 26.44494683 140.89522749 C26.45896886 132.44566194 26.45744918 123.99619755 26.44604492 115.54663086 C26.43455634 106.84245161 26.44865703 98.13858022 26.4754414 89.43444151 C26.49761741 81.94627689 26.50423178 74.45820879 26.49836498 66.97001368 C26.49499992 62.50409824 26.49738091 58.03838028 26.51461601 53.5724926 C26.53011429 49.37392221 26.52609794 45.17580745 26.50731087 40.97725487 C26.50363343 39.4406162 26.50670877 37.90394355 26.51719666 36.36733627 C26.56753023 28.38049575 26.56909621 21.83292108 22 15 C16.19937772 10.16416294 7.20604079 9.8464592 0 9 C0 6.03 0 3.06 0 0 Z " fill="#565656" transform="translate(47,45)"/>
<path d="M0 0 C3.3 0 6.6 0 10 0 C10 24.09 10 48.18 10 73 C7.03 73 4.06 73 1 73 C-0.04504333 69.94313317 -1.02933987 66.89442771 -1.89453125 63.78125 C-4.30510081 54.90539518 -4.30510081 54.90539518 -10 48 C-17.25526522 44.43429995 -24.14377563 44.52772364 -32.125 44.48828125 C-33.48121743 44.47140855 -34.83741947 44.45325488 -36.19360352 44.43388367 C-39.73788644 44.38665791 -43.28210693 44.3566724 -46.82659912 44.33044434 C-50.45353518 44.30049912 -54.0802567 44.25401733 -57.70703125 44.20898438 C-64.80456414 44.12326422 -71.90216345 44.05578103 -79 44 C-78.89248376 54.36168747 -78.77984724 64.72330538 -78.66066074 75.08486557 C-78.6054798 79.89607213 -78.55206748 84.70728483 -78.50268555 89.51855469 C-78.45497082 94.16106689 -78.4026254 98.80350584 -78.34705925 103.44593048 C-78.32666792 105.21773709 -78.30794954 106.98956377 -78.29092598 108.76140594 C-78.26681064 111.24172723 -78.23676586 113.72191074 -78.20532227 116.20214844 C-78.1995668 116.93582642 -78.19381134 117.66950439 -78.18788147 118.42541504 C-78.13990019 121.75182107 -78.02488026 124.81778964 -77 128 C-77.66 128 -78.32 128 -79 128 C-80.56998834 124.86002332 -80.12944545 121.50823639 -80.11352539 118.06201172 C-80.11367142 117.24241974 -80.11381744 116.42282776 -80.1139679 115.57839966 C-80.11326974 112.8621356 -80.10548188 110.14593962 -80.09765625 107.4296875 C-80.09579173 105.54924558 -80.09436798 103.66880317 -80.09336853 101.7883606 C-80.08954607 96.83338078 -80.07971808 91.87843017 -80.06866455 86.92346191 C-80.05844461 81.86955155 -80.05386966 76.81563647 -80.04882812 71.76171875 C-80.03809559 61.84113299 -80.0210224 51.92056892 -80 42 C-72.23666122 41.9067873 -64.47345672 41.83597777 -56.70969677 41.79275131 C-53.10354347 41.77199101 -49.49777665 41.74388949 -45.8918457 41.69824219 C-42.40344326 41.65436557 -38.91540946 41.63077631 -35.42675209 41.62049103 C-33.46660309 41.60964413 -31.50659974 41.57848681 -29.54667664 41.54681396 C-20.50979285 41.54457684 -12.08907778 42.43293215 -5.0625 48.5625 C-0.41076801 55.268464 1.60796985 62.94439947 1 71 C3.31 71 5.62 71 8 71 C8 47.9 8 24.8 8 1 C6.02 1 4.04 1 2 1 C1.896875 2.134375 1.79375 3.26875 1.6875 4.4375 C1.1015344 9.12522484 -0.0298915 13.6921551 -2 18 C-2.66 18.33 -3.32 18.66 -4 19 C-3.71125 17.72125 -3.4225 16.4425 -3.125 15.125 C-2.00607302 10.0978209 -0.99632805 5.05280656 0 0 Z " fill="#5B5B5B" transform="translate(187,108)"/>
<path d="M0 0 C31.02 0 62.04 0 94 0 C94 2.64 94 5.28 94 8 C92.94941406 8.09796875 91.89882813 8.1959375 90.81640625 8.296875 C76.38683218 9.65360935 76.38683218 9.65360935 65 18 C65.2443597 14.70114403 66.22885893 13.77114107 68.625 11.375 C75.44471864 6.14387464 83.7392352 6.4720437 92 6 C92 4.35 92 2.7 92 1 C61.97 1 31.94 1 1 1 C1 2.98 1 4.96 1 7 C1.76183594 6.96519531 2.52367187 6.93039063 3.30859375 6.89453125 C13.10399996 6.63772285 20.07741211 7.80456935 27.58984375 14.3046875 C30.96802841 18.36599537 31.25066753 22.52973181 31.25396729 27.65962219 C31.25708727 28.31570172 31.26020725 28.97178125 31.26342177 29.64774197 C31.27137693 31.83857722 31.26508787 34.02913356 31.25878906 36.2199707 C31.26150011 37.79391644 31.26506168 39.36786091 31.26940918 40.94180298 C31.27852416 45.21260066 31.274992 49.48330167 31.26865101 53.75410104 C31.26358375 58.22801233 31.26828473 62.7019154 31.27142334 67.17582703 C31.27506199 74.69202152 31.2702677 82.20817671 31.26074219 89.72436523 C31.24986971 98.40338337 31.25337484 107.08230744 31.264395 115.76132327 C31.27348492 123.21966966 31.27474446 130.6779878 31.26951766 138.13633794 C31.26640581 142.58772171 31.26596678 147.03906136 31.27259064 151.49044228 C31.27838786 155.67899705 31.27432386 159.86743124 31.26280212 164.05597305 C31.26016771 165.58938205 31.26089971 167.12280127 31.26532745 168.65620613 C31.31669969 188.262187 31.31669969 188.262187 25 195 C24.34 194.67 23.68 194.34 23 194 C23.61875 193.38125 24.2375 192.7625 24.875 192.125 C30.33328373 184.09811217 29.28789039 173.49432412 29.25878906 164.16210938 C29.26150439 162.68919197 29.26506834 161.21627593 29.26940918 159.74336243 C29.2784711 155.77023505 29.27501469 151.79721237 29.26865101 147.82408333 C29.26355874 143.65009419 29.26829138 139.47611354 29.27142334 135.30212402 C29.27505362 128.29498702 29.27028856 121.28789229 29.26074219 114.28076172 C29.24985945 106.19981991 29.25338569 98.11897905 29.264395 90.03803968 C29.27349466 83.07807033 29.27474008 76.11813122 29.26951766 69.15815783 C29.26641266 65.0108325 29.26594795 60.86355451 29.27259064 56.7162323 C29.27840258 52.8156942 29.2742974 48.91528524 29.26280212 45.01476097 C29.260176 43.5902293 29.26088525 42.16568661 29.26532745 40.74115944 C29.48928006 27.45937665 29.48928006 27.45937665 25.375 15.0625 C18.43235243 9.03335869 8.76408593 8.96998347 0 8 C0 5.36 0 2.72 0 0 Z " fill="#5F5F5F" transform="translate(254,46)"/>
<path d="M0 0 C58.08 0 116.16 0 176 0 C177.12683 14.64878996 177.12683 14.64878996 177.31640625 19.90234375 C177.37924805 21.63967773 177.37924805 21.63967773 177.44335938 23.41210938 C177.48267578 24.57548828 177.52199219 25.73886719 177.5625 26.9375 C177.60568359 28.09701172 177.64886719 29.25652344 177.69335938 30.45117188 C177.98001788 38.63686468 178.04905311 46.80968854 178 55 C174.7 55 171.4 55 168 55 C167.30238463 52.39816412 166.61662226 49.79416398 165.9375 47.1875 C165.73833984 46.44951172 165.53917969 45.71152344 165.33398438 44.95117188 C163.88671875 39.33984375 163.88671875 39.33984375 165 36 C168.31658613 40.9748792 169.38479461 47.03568353 169 53 C171.31 53 173.62 53 176 53 C175.96970703 52.13536133 175.93941406 51.27072266 175.90820312 50.37988281 C175.79365031 47.06225717 175.68225455 43.74455271 175.57275391 40.42675781 C175.52544674 39.01135277 175.47700608 37.595985 175.42724609 36.18066406 C175.0157517 24.44047714 175 12.7592743 175 1 C117.58 1 60.16 1 1 1 C1 4.96 1 8.92 1 13 C0.85757752 16.75384956 0.6985219 20.49954574 0.5 24.25 C0.45230469 25.19746094 0.40460938 26.14492187 0.35546875 27.12109375 C0.23965463 29.41421332 0.12115077 31.70715729 0 34 C-0.33 34 -0.66 34 -1 34 C-1.0291189 29.45834687 -1.0468389 24.9167179 -1.0625 20.375 C-1.07087891 19.08980469 -1.07925781 17.80460937 -1.08789062 16.48046875 C-1.09111328 15.23652344 -1.09433594 13.99257813 -1.09765625 12.7109375 C-1.10289307 11.56931152 -1.10812988 10.42768555 -1.11352539 9.25146484 C-1 6 -1 6 0 0 Z " fill="#5A5A5A" transform="translate(374,46)"/>
<path d="M0 0 C0.33 0 0.66 0 1 0 C1 1.98 1 3.96 1 6 C31.03 6 61.06 6 92 6 C92 4.02 92 2.04 92 0 C92.66 0 93.32 0 94 0 C94 2.64 94 5.28 94 8 C62.98 8 31.96 8 0 8 C0 5.36 0 2.72 0 0 Z " fill="#2A2A2A" transform="translate(254,245)"/>
<path d="M0 0 C-0.71013748 0.44317062 -1.42027496 0.88634125 -2.15193176 1.34294128 C-6.68656752 4.67208105 -9.57557582 7.20715114 -10.90072632 12.80484009 C-11.30260246 17.46994124 -11.15261603 22.12649472 -11.01171875 26.80078125 C-10.99557708 28.5270804 -10.98375144 30.25342477 -10.97602844 31.9797821 C-10.94368566 36.5022178 -10.85048399 41.02142594 -10.74493408 45.54266357 C-10.64942972 50.14849107 -10.61675643 54.75475242 -10.57617188 59.36132812 C-10.50492828 66.08431988 -10.41809022 72.80674087 -10.2722168 79.52856445 C-10.26010162 80.22940155 -10.24798645 80.93023865 -10.23550415 81.65231323 C-10.15630784 84.89895866 -9.97954735 87.89084313 -9 91 C-9.66 91 -10.32 91 -11 91 C-12.5230616 87.9538768 -12.16486757 84.77564014 -12.17700195 81.43261719 C-12.18685875 80.26157692 -12.18685875 80.26157692 -12.19691467 79.06687927 C-12.21666447 76.47687691 -12.22831483 73.88693262 -12.23828125 71.296875 C-12.24439454 69.97040325 -12.24439454 69.97040325 -12.25063133 68.61713409 C-12.27150063 63.93535088 -12.28579783 59.25359703 -12.29516602 54.57177734 C-12.30622393 49.7384534 -12.3406141 44.90559068 -12.38033772 40.07242966 C-12.40650081 36.3543208 -12.41485764 32.63632178 -12.41844749 28.91812897 C-12.42331535 27.13676086 -12.43493503 25.35539773 -12.45348549 23.57411957 C-12.47786777 21.07736354 -12.47691377 18.5817999 -12.4699707 16.08496094 C-12.48278076 15.35226486 -12.49559082 14.61956879 -12.50878906 13.8646698 C-12.45732951 8.77412989 -11.15878105 5.94282409 -8 2 C-4.98687421 -0.91896561 -3.92311256 -1.18510692 0 0 Z " fill="#373737" transform="translate(27,215)"/>
<path d="M0 0 C5.17087057 0.26745882 8.7650216 0.62306414 12.6875 4.375 C18.17584739 11.17009677 19.01168183 19.5862914 20 28 C19.34 28 18.68 28 18 28 C17.75765625 26.91460937 17.5153125 25.82921875 17.265625 24.7109375 C16.92772466 23.26547493 16.58914687 21.82017061 16.25 20.375 C16.09273437 19.66214844 15.93546875 18.94929688 15.7734375 18.21484375 C14.31688272 12.10851794 12.15379096 7.61534322 7 3.75 C4.69393684 2.40479649 2.42253693 1.11809397 0 0 Z " fill="#484848" transform="translate(169,152)"/>
<path d="M0 0 C-2.97 2.64 -5.94 5.28 -9 8 C-9.33 6.68 -9.66 5.36 -10 4 C-4.5 -1.125 -4.5 -1.125 0 0 Z " fill="#919191" transform="translate(27,215)"/>
<path d="M0 0 C1.32 0.33 2.64 0.66 4 1 C1.36 3.64 -1.28 6.28 -4 9 C-5 7 -5 7 -4.25 4.5 C-3 2 -3 2 0 0 Z " fill="#A8A8A8" transform="translate(22,10)"/>
<path d="M0 0 C8.57142857 0.71428571 8.57142857 0.71428571 12 4 C11.67 4.99 11.34 5.98 11 7 C9.948125 6.071875 9.948125 6.071875 8.875 5.125 C5.94222819 2.9572991 3.48817594 1.97344445 0 1 C0 0.67 0 0.34 0 0 Z " fill="#242424" transform="translate(169,152)"/>
</svg>
