<svg class="svg-icon" style="width: 1em; height: 1em;vertical-align: middle;fill: currentColor;overflow: hidden;" viewBox="0 0 1024 1024" version="1.1" xmlns="http://www.w3.org/2000/svg"><path d="M874.666667 832v-42.666667h85.333333a21.333333 21.333333 0 0 0 18.986667-30.933333L938.666667 677.546667v-203.093334l40.32-80.853333A21.333333 21.333333 0 0 0 960 362.666667h-85.333333v-42.666667h-42.666667v42.666667h-85.333333a21.333333 21.333333 0 0 0-18.986667 30.933333L768 474.453333V661.333333H521.6a320 320 0 1 0-282.88 17.706667L197.12 832H42.666667v128h938.666666v-128z m-42.666667 0H528.213333l-34.773333-128h261.333333l-27.093333 54.4A21.333333 21.333333 0 0 0 746.666667 789.333333h85.333333z m-50.773333-85.333333l21.333333-42.666667h101.546667l21.333333 42.666667zM810.666667 514.986667L858.453333 554.666667H810.666667z m85.333333 15.36L848.213333 490.666667H896zM896 597.333333v39.68L848.213333 597.333333z m29.44-192l-21.333333 42.666667h-101.546667l-21.333333-42.666667zM810.666667 621.653333L858.453333 661.333333H810.666667zM362.666667 341.333333a42.666667 42.666667 0 1 1-42.666667 42.666667 42.666667 42.666667 0 0 1 42.666667-42.666667z m21.333333 320v-194.986666l50.56 185.386666A266.026667 266.026667 0 0 1 384 661.333333z m-42.666667-193.92V661.333333a266.026667 266.026667 0 0 1-50.773333-8.746666L341.333333 466.133333z m133.76 170.666667l-52.48-192A85.333333 85.333333 0 0 0 445.013333 405.333333H640a277.333333 277.333333 0 0 1-164.906667 231.893334zM640 362.666667h-194.986667A85.333333 85.333333 0 0 0 384 301.653333V107.733333A277.333333 277.333333 0 0 1 640 362.666667zM341.333333 107.733333v193.92A85.333333 85.333333 0 0 0 280.32 362.666667H86.4A277.333333 277.333333 0 0 1 341.333333 107.733333zM86.4 405.333333h193.92a87.04 87.04 0 0 0 21.333333 39.253334l-52.48 192A277.333333 277.333333 0 0 1 86.4 405.333333z m192 287.36A326.613333 326.613333 0 0 0 362.666667 704h86.4l34.986666 128H241.28zM938.666667 917.333333H85.333333v-42.666666h853.333334z"  /></svg>