<?xml version="1.0" standalone="no"?>
<!DOCTYPE svg PUBLIC "-//W3C//DTD SVG 20010904//EN"
 "http://www.w3.org/TR/2001/REC-SVG-20010904/DTD/svg10.dtd">
<svg version="1.0" xmlns="http://www.w3.org/2000/svg"
 width="600.000000pt" height="319.000000pt" viewBox="0 0 600.000000 319.000000"
 preserveAspectRatio="xMidYMid meet">
<g transform="translate(0.000000,319.000000) scale(0.100000,-0.100000)"
fill="#000000" stroke="none">
<path d="M219 3077 c-65 -43 -69 -62 -69 -343 0 -155 4 -264 11 -285 17 -53
68 -93 136 -107 63 -13 94 -36 112 -85 7 -19 11 -206 11 -554 0 -470 -2 -529
-17 -560 -20 -43 -60 -69 -119 -78 -52 -7 -101 -45 -120 -92 -19 -45 -20 -775
-1 -813 7 -14 28 -33 47 -43 33 -16 181 -17 2775 -15 2616 3 2741 4 2773 21
18 10 42 32 52 50 20 31 20 61 20 1435 l0 1403 -39 42 -40 42 -2749 3 -2749 2
-34 -23z m5530 -5 c19 -10 43 -34 53 -53 17 -32 18 -96 18 -1412 0 -1513 4
-1422 -61 -1468 l-34 -24 -2753 0 -2754 0 -24 28 -25 29 3 405 3 405 32 28
c18 16 49 32 70 36 58 10 112 41 133 77 19 31 20 54 20 580 0 580 0 577 -46
619 -11 9 -45 23 -77 31 -71 19 -102 38 -122 77 -14 26 -15 72 -13 310 l3 278
25 27 c14 15 34 31 45 35 11 5 1246 9 2745 9 2621 1 2727 0 2759 -17z"/>
<path d="M260 3037 c-52 -26 -55 -49 -50 -330 l5 -259 26 -22 c15 -13 46 -26
69 -30 63 -10 98 -32 131 -84 l29 -46 0 -560 c-1 -422 -4 -566 -13 -582 -32
-55 -90 -104 -122 -104 -8 0 -15 -4 -15 -10 0 -15 16 -12 60 10 44 22 82 68
99 119 16 48 16 1084 0 1132 -26 78 -101 138 -172 139 -18 0 -39 11 -58 29
l-29 29 0 251 c0 166 4 258 11 275 7 14 25 30 42 36 21 7 869 10 2726 10 2517
0 2698 -1 2721 -17 14 -9 28 -22 32 -27 4 -6 8 -579 8 -1273 l0 -1263 -2758 0
-2758 0 -12 33 c-16 44 -17 426 -1 461 6 13 28 31 48 39 30 13 32 15 13 16
-14 1 -36 -11 -53 -28 l-29 -29 0 -218 c0 -144 4 -229 12 -251 l12 -33 2767 0
c2514 0 2767 1 2773 16 3 9 6 576 6 1260 0 1353 3 1286 -55 1312 -39 18 -5429
17 -5465 -1z"/>
<path d="M470 2700 c0 -36 2 -39 33 -44 129 -21 153 -28 183 -51 22 -17 37
-40 45 -68 17 -63 16 -1610 -1 -1663 -23 -73 -58 -96 -167 -113 -39 -6 -74
-11 -77 -11 -3 0 -6 -16 -6 -35 l0 -35 841 2 842 3 68 255 c38 140 67 261 64
267 -5 14 -72 17 -92 5 -6 -4 -22 -30 -35 -57 -55 -119 -152 -231 -236 -274
-101 -51 -172 -63 -427 -68 -276 -6 -380 4 -407 38 -17 19 -18 55 -18 425 l0
404 290 0 c166 0 310 -5 338 -11 89 -19 135 -85 160 -230 7 -43 8 -44 50 -47
l42 -3 0 355 c0 196 0 359 0 363 0 3 -19 6 -42 6 l-42 0 -12 -61 c-13 -62 -42
-133 -67 -164 -16 -20 -79 -48 -117 -54 -14 -2 -153 -4 -310 -4 l-285 -1 -3
364 c-2 302 0 366 12 382 14 19 30 20 280 23 478 6 567 -17 632 -164 12 -28
26 -69 30 -90 10 -60 18 -69 63 -69 35 0 41 3 41 20 3 121 -2 419 -6 430 -5
13 -111 15 -835 15 l-829 0 0 -40z m1643 23 c3 -5 6 -102 8 -218 l4 -210 -31
-3 c-30 -3 -31 -1 -44 55 -30 137 -85 206 -188 239 -49 15 -104 18 -409 21
l-352 3 -18 -27 c-16 -25 -18 -59 -18 -398 l0 -370 275 -3 c298 -3 389 6 442
42 44 29 74 86 94 174 15 69 17 72 45 72 l29 0 -2 -347 -3 -346 -27 -1 c-26
-2 -28 2 -38 54 -18 89 -49 158 -87 189 -56 46 -114 52 -438 49 l-290 -3 -2
-395 c-2 -417 1 -464 40 -480 73 -32 536 -36 679 -7 181 37 287 121 388 310
40 73 44 77 76 77 19 0 34 -3 34 -7 0 -3 -29 -116 -65 -249 -36 -134 -65 -245
-65 -248 0 -4 -373 -6 -830 -6 l-830 0 0 24 c0 21 5 24 62 30 117 14 170 49
194 132 12 44 14 165 12 855 -3 783 -4 805 -23 838 -31 53 -64 71 -163 88 -90
16 -92 17 -92 45 l0 28 814 0 c448 0 817 -3 819 -7z"/>
<path d="M2539 2728 c-8 -26 -7 -57 3 -65 7 -6 48 -13 91 -17 92 -7 149 -33
174 -79 17 -30 18 -87 18 -862 0 -816 0 -831 -20 -865 -27 -46 -79 -70 -178
-82 -45 -5 -86 -13 -91 -18 -5 -5 -6 -20 -2 -34 l6 -26 455 -2 c250 -2 460 -1
465 0 6 2 10 19 10 38 0 26 -4 34 -17 34 -64 1 -171 23 -203 41 -79 45 -75 -8
-75 914 0 647 3 826 13 851 20 47 82 81 160 89 120 11 122 12 122 51 l0 34
-465 0 c-256 0 -465 -1 -466 -2z m911 -32 c0 -19 -6 -24 -37 -30 -21 -3 -50
-6 -65 -6 -15 0 -52 -9 -83 -21 -43 -16 -62 -30 -83 -62 l-27 -41 0 -825 0
-826 22 -41 c12 -23 32 -48 45 -56 28 -18 117 -48 138 -46 8 1 32 0 53 0 32
-2 37 -5 37 -27 l0 -25 -451 0 -450 0 3 22 c3 20 12 24 88 33 88 11 132 28
163 63 46 51 46 52 47 892 0 517 -4 808 -10 832 -23 82 -82 116 -232 133 -46
5 -58 10 -58 24 0 10 3 21 7 24 3 4 206 7 450 7 l443 0 0 -24z"/>
<path d="M3726 2598 c-3 -73 -8 -195 -12 -271 l-6 -138 48 3 48 3 17 70 c41
167 92 245 187 286 44 19 230 39 364 39 l68 0 -2 -852 c-3 -830 -4 -854 -23
-892 -25 -50 -75 -76 -155 -83 -33 -3 -63 -10 -66 -15 -11 -18 119 2 166 25
35 17 51 33 70 72 l25 50 3 853 3 852 -123 0 c-373 0 -460 -52 -528 -312 -22
-86 -24 -88 -53 -88 l-29 0 7 203 c5 111 8 227 9 257 l1 55 862 3 862 2 5 -52
c3 -29 8 -146 12 -260 l6 -208 -26 0 c-30 0 -37 12 -61 105 -36 141 -99 230
-184 260 -60 21 -193 35 -333 35 l-118 0 0 -836 c0 -589 3 -848 11 -880 21
-82 79 -118 211 -131 35 -3 64 -7 66 -8 2 -2 5 -15 6 -29 l3 -26 -450 0 -449
0 4 30 c3 21 0 30 -9 30 -10 0 -13 -10 -11 -33 l3 -32 463 -3 462 -2 0 39 0
39 -67 7 c-95 9 -144 23 -172 48 -52 48 -51 23 -51 932 l0 845 63 0 c142 -1
318 -19 360 -38 97 -43 140 -106 181 -264 l24 -93 44 0 43 0 -4 160 c-2 88 -5
174 -7 190 -1 17 -3 65 -3 108 l-1 77 -879 0 -879 0 -6 -132z"/>
<path d="M5816 3088 c3 -5 10 -6 15 -3 13 9 11 12 -6 12 -8 0 -12 -4 -9 -9z"/>
<path d="M5757 89 c7 -7 15 -10 18 -7 3 3 -2 9 -12 12 -14 6 -15 5 -6 -5z"/>
</g>
</svg>
